:FULLY-SPECIFIED
:FORCE-ALL-JOINTS-BE-3DOF
:DEGREES
577
root 6.98616 16.3853 -3.57502 -166.389 76.6361 -173.35
lfemur -16.7207 -3.88822 -19.5006
ltibia 44.1366 0 0
lfoot -32.3404 10.9386 0
ltoes 8.27738 0 0
rfemur -52.6444 -12.8645 14.1811
rtibia 49.4582 0 0
rfoot 10.4775 4.48723 0
rtoes -29.2361 0 0
lowerback 6.637 -0.633186 -2.33342
upperback 2.35763 -0.838215 3.37578
thorax -1.19912 -0.396767 4.8715
lowerneck -5.43042 -13.4564 -3.96473
upperneck 10.6034 -18.2292 5.03654
head 4.89991 -8.81078 0.983883
lclavicle 2.76311e-14 -8.74653e-15 0
lhumerus -39.7747 -17.7282 92.528
lradius 55.1169 0 0
lwrist 23.5346 0 0
lhand -21.3303 -3.70658 0
lfingers 7.12502 0 0
lthumb 5.05547 26.2131 0
rclavicle 2.76311e-14 -8.74653e-15 0
rhumerus 28.6651 15.104 -73.8421
rradius 133.841 0 0
rwrist -46.1452 0 0
rhand -25.766 -21.3945 0
rfingers 7.12502 0 0
rthumb 0.771761 -771.373 0
578
root 6.92903 16.4174 -3.57137 -165.166 77.705 -172.138
lfemur -16.4724 -3.47226 -19.5914
ltibia 43.4546 -0 0
lfoot -32.1554 11.5297 -0.0284559
ltoes 8.35235 -0 0
rfemur -52.5768 -13.0766 14.6487
rtibia 49.6867 -0 0
rfoot 10.5487 4.6609 -0.00704767
rtoes -28.8666 0 0
lowerback 6.45588 -0.648873 -2.5162
upperback 2.28397 -0.879115 3.28399
thorax -1.16784 -0.421121 4.87837
lowerneck -5.50894 -13.4075 -3.9422
upperneck 10.7398 -18.1764 5.05564
head 4.95172 -8.77746 0.97919
lclavicle 2.76311e-14 -8.74653e-15 0
lhumerus -39.0455 -18.3533 92.0529
lradius 55.1095 -0 0
lwrist 23.4849 0 0
lhand -21.1393 -3.61826 -0.00179645
lfingers 7.12502 -0 0
lthumb 5.23992 26.2983 -0.00163712
rclavicle 2.76311e-14 -8.74653e-15 0
rhumerus 28.7533 15.0923 -73.6699
rradius 133.825 -0 0
rwrist -46.1441 0 0
rhand -25.7589 -21.3296 -0.000709167
rfingers 7.12502 -0 0
rthumb 0.77865 -51.3082 -0.000684162
579
root 6.87302 16.4402 -3.56362 -163.902 78.6705 -170.844
lfemur -16.3021 -2.89615 -19.6362
ltibia 42.9793 -0 0
lfoot -32.0033 11.9623 -0.0508031
ltoes 8.18395 -0 0
rfemur -52.3381 -13.1718 14.9896
rtibia 49.901 -0 0
rfoot 10.5217 4.81841 -0.0140851
rtoes -28.5555 0 0
lowerback 6.2752 -0.666432 -2.72656
upperback 2.22603 -0.922277 3.19082
thorax -1.11924 -0.446851 4.89941
lowerneck -5.55788 -13.3724 -3.93248
upperneck 10.8791 -18.1457 5.10906
head 5.00502 -8.75383 0.98613
lclavicle 2.76311e-14 -8.74653e-15 0
lhumerus -38.2107 -18.9804 91.5437
lradius 55.0619 -0 0
lwrist 23.4861 0 0
lhand -20.9826 -3.53914 -0.00418541
lfingers 7.12502 -0 0
lthumb 5.39125 26.3753 -0.00373727
rclavicle 2.76311e-14 -8.74653e-15 0
rhumerus 28.7393 15.1478 -73.5295
rradius 133.848 -0 0
rwrist -46.0799 0 0
rhand -25.7777 -21.2451 -0.00158086
rfingers 7.12502 -0 0
rthumb 0.760484 -51.2237 -0.00152534
580
root 6.8181 16.4548 -3.5524 -162.584 79.5496 -169.46
lfemur -16.2011 -2.17805 -19.641
ltibia 42.6875 -0 0
lfoot -31.8813 12.2568 -0.0668935
ltoes 7.80709 -0 0
rfemur -51.9513 -13.1663 15.2208
rtibia 50.1038 -0 0
rfoot 10.4087 4.96756 -0.0208608
rtoes -28.2909 0 0
lowerback 6.09571 -0.68634 -2.95986
upperback 2.18173 -0.967983 3.09661
thorax -1.05604 -0.474068 4.93239
lowerneck -5.5814 -13.3489 -3.93306
upperneck 11.0209 -18.1335 5.1918
head 5.05953 -8.73819 1.00302
lclavicle 2.76311e-14 -8.74653e-15 0
lhumerus -37.2846 -19.6076 91.0067
lradius 54.9799 -0 0
lwrist 23.531 0 0
lhand -20.8543 -3.46758 -0.00690584
lfingers 7.12502 -0 0
lthumb 5.51517 26.4457 -0.00608031
rclavicle 2.76311e-14 -8.74653e-15 0
rhumerus 28.6348 15.2588 -73.4179
rradius 133.903 -0 0
rwrist -45.9647 0 0
rhand -25.8192 -21.1445 -0.00252372
rfingers 7.12502 -0 0
rthumb 0.720409 -51.1232 -0.00243533
581
root 6.76425 16.4624 -3.53837 -161.191 80.3596 -167.972
lfemur -16.1605 -1.33599 -19.6126
ltibia 42.556 -0 0
lfoot -31.786 12.4336 -0.0769325
ltoes 7.25669 -0 0
rfemur -51.4402 -13.0757 15.3605
rtibia 50.2979 -0 0
rfoot 10.2218 5.11615 -0.0272083
rtoes -28.0614 0 0
lowerback 5.91817 -0.709038 -3.21146
upperback 2.14898 -1.01652 3.00172
thorax -0.980931 -0.502885 4.97511
lowerneck -5.58366 -13.3343 -3.94148
upperneck 11.1647 -18.136 5.29887
head 5.11493 -8.72884 1.02819
lclavicle 2.76311e-14 -8.74653e-15 0
lhumerus -36.2817 -20.2332 90.4487
lradius 54.8693 -0 0
lwrist 23.6123 0 0
lhand -20.7485 -3.40195 -0.00973179
lfingers 7.12502 -0 0
lthumb 5.61738 26.5107 -0.00847716
rclavicle 2.76311e-14 -8.74653e-15 0
rhumerus 28.4516 15.4131 -73.3325
rradius 133.98 -0 0
rwrist -45.8107 0 0
rhand -25.8801 -21.0312 -0.00344115
rfingers 7.12502 -0 0
rthumb 0.661573 -51.0099 -0.00332087
582
root 6.71144 16.4639 -3.52218 -159.688 81.1171 -166.351
lfemur -16.1715 -0.387826 -19.5577
ltibia 42.5613 -0 0
lfoot -31.7146 12.5131 -0.0813935
ltoes 6.56766 -0 0
rfemur -50.8292 -12.915 15.427
rtibia 50.4861 -0 0
rfoot 9.97314 5.27198 -0.0329875
rtoes -27.8551 0 0
lowerback 5.74336 -0.734929 -3.47673
upperback 2.1257 -1.06818 2.90649
thorax -0.896624 -0.53341 5.02536
lowerneck -5.5688 -13.3262 -3.95526
upperneck 11.31 -18.1497 5.42534
head 5.17095 -8.7241 1.05997
lclavicle 2.76311e-14 -8.74653e-15 0
lhumerus -35.2167 -20.8559 89.8768
lradius 54.7359 -0 0
lwrist 23.7227 0 0
lhand -20.6593 -3.34061 -0.0124653
lfingers 7.12502 -0 0
lthumb 5.70359 26.5717 -0.0107638
rclavicle 2.76311e-14 -8.74653e-15 0
rhumerus 28.2014 15.5986 -73.2704
rradius 134.07 -0 0
rwrist -45.63 0 0
rhand -25.9572 -20.9085 -0.00424174
rfingers 7.12502 -0 0
rthumb 0.587122 -50.8874 -0.00409369
583
root 6.65964 16.4604 -3.50445 -158.023 81.8382 -164.55
lfemur -16.2253 0.648613 -19.4831
ltibia 42.6802 -0 0
lfoot -31.6641 12.5155 -0.0809455
ltoes 5.77493 -0 0
rfemur -50.1429 -12.6993 15.4388
rtibia 50.6711 -0 0
rfoot 9.67488 5.44285 -0.0380419
rtoes -27.6605 0 0
lowerback 5.57204 -0.764382 -3.75102
upperback 2.10982 -1.12326 2.81129
thorax -0.805818 -0.565748 5.08093
lowerneck -5.54095 -13.322 -3.97196
upperneck 11.4564 -18.1707 5.56627
head 5.22728 -8.72225 1.09667
lclavicle 2.76311e-14 -8.74653e-15 0
lhumerus -34.1048 -21.475 89.2986
lradius 54.5855 -0 0
lwrist 23.8551 0 0
lhand -20.5808 -3.28192 -0.014931
lfingers 7.12502 -0 0
lthumb 5.77951 26.6302 -0.0127969
rclavicle 2.76311e-14 -8.74653e-15 0
rhumerus 27.8955 15.8031 -73.2292
rradius 134.163 -0 0
rwrist -45.4347 0 0
rhand -26.0471 -20.7801 -0.0048477
rfingers 7.12502 -0 0
rthumb 0.500205 -50.7589 -0.00467867
584
root 6.60884 16.4529 -3.48586 -156.111 82.5384 -162.49
lfemur -16.3135 1.75553 -19.3956
ltibia 42.8895 -0 0
lfoot -31.6315 12.4612 -0.0763898
ltoes 4.9134 -0 0
rfemur -49.4061 -12.4435 15.4139
rtibia 50.8556 -0 0
rfoot 9.33915 5.63654 -0.0421723
rtoes -27.466 0 0
lowerback 5.40496 -0.797725 -4.02968
upperback 2.09925 -1.18208 2.71647
thorax -0.711212 -0.59999 5.13961
lowerneck -5.50426 -13.3193 -3.98912
upperneck 11.6034 -18.1953 5.71673
head 5.28362 -8.72159 1.13664
lclavicle 2.76311e-14 -8.74653e-15 0
lhumerus -32.9612 -22.0905 88.722
lradius 54.4239 -0 0
lwrist 24.0021 0 0
lhand -20.5069 -3.22426 -0.0169723
lfingers 7.12502 -0 0
lthumb 5.85085 26.6874 -0.0144503
rclavicle 2.76311e-14 -8.74653e-15 0
rhumerus 27.5457 16.0143 -73.2059
rradius 134.251 -0 0
rwrist -45.2371 0 0
rhand -26.1468 -20.6492 -0.00520137
rfingers 7.12502 -0 0
rthumb 0.403969 -50.6281 -0.00502013
585
root 6.559 16.4426 -3.46703 -153.822 83.2317 -160.046
lfemur -16.4276 2.91513 -19.3015
ltibia 43.1658 -0 0
lfoot -31.6139 12.3705 -0.068609
ltoes 4.018 -0 0
rfemur -48.6431 -12.163 15.37
rtibia 51.0425 -0 0
rfoot 8.97811 5.86083 -0.0451277
rtoes -27.2598 0 0
lowerback 5.24291 -0.835253 -4.30808
upperback 2.09191 -1.24493 2.62239
thorax -0.615504 -0.636219 5.19921
lowerneck -5.46287 -13.3156 -4.0043
upperneck 11.7506 -18.2198 5.87181
head 5.33968 -8.72042 1.17822
lclavicle 2.76311e-14 -8.74653e-15 0
lhumerus -31.8018 -22.7027 88.1556
lradius 54.2569 -0 0
lwrist 24.1565 0 0
lhand -20.4319 -3.16598 -0.0184494
lfingers 7.12502 -0 0
lthumb 5.92332 26.7449 -0.0156133
rclavicle 2.76311e-14 -8.74653e-15 0
rhumerus 27.1635 16.22 -73.1976
rradius 134.326 -0 0
rwrist -45.0492 0 0
rhand -26.2528 -20.5193 -0.00526981
rfingers 7.12502 -0 0
rthumb 0.301563 -50.4983 -0.00508627
586
root 6.51011 16.4305 -3.44862 -150.946 83.9302 -157.015
lfemur -16.5597 4.10955 -19.2071
ltibia 43.4857 -0 0
lfoot -31.6083 12.2638 -0.0585256
ltoes 3.12365 -0 0
rfemur -47.8782 -11.8737 15.3241
rtibia 51.2344 -0 0
rfoot 8.6039 6.12351 -0.0466121
rtoes -27.0303 0 0
lowerback 5.08663 -0.877227 -4.58157
upperback 2.08572 -1.31214 2.52942
thorax -0.521388 -0.674503 5.25751
lowerneck -5.42091 -13.3084 -4.01504
upperneck 11.8974 -18.2403 6.02664
head 5.39517 -8.71702 1.21973
lclavicle 2.76311e-14 -8.74653e-15 0
lhumerus -30.6424 -23.3129 87.608
lradius 54.0902 -0 0
lwrist 24.311 0 0
lhand -20.3498 -3.10546 -0.019239
lfingers 7.12502 -0 0
lthumb 6.00263 26.8038 -0.0161905
rclavicle 2.76311e-14 -8.74653e-15 0
rhumerus 26.7606 16.4077 -73.201
rradius 134.377 -0 0
rwrist -44.8832 0 0
rhand -26.362 -20.3938 -0.00504736
rfingers 7.12502 -0 0
rthumb 0.196135 -50.3729 -0.00487159
587
root 6.46212 16.4177 -3.43127 -147.139 84.6417 -153.057
lfemur -16.7021 5.32091 -19.1182
ltibia 43.8262 -0 0
lfoot -31.6118 12.1614 -0.0470713
ltoes 2.26525 -0 0
rfemur -47.1351 -11.5919 15.2925
rtibia 51.4341 -0 0
rfoot 8.22868 6.43236 -0.0463079
rtoes -26.7659 0 0
lowerback 4.93689 -0.923876 -4.84552
upperback 2.07861 -1.38404 2.43792
thorax -0.431558 -0.714898 5.31233
lowerneck -5.38254 -13.2952 -4.01887
upperneck 12.0436 -18.2531 6.17632
head 5.44978 -8.70969 1.25953
lclavicle 2.76311e-14 -8.74653e-15 0
lhumerus -29.4995 -23.9228 87.0886
lradius 53.9298 -0 0
lwrist 24.4585 0 0
lhand -20.2547 -3.04106 -0.0192355
lfingers 7.12502 -0 0
lthumb 6.09448 26.8657 -0.016102
rclavicle 2.76311e-14 -8.74653e-15 0
rhumerus 26.3489 16.5652 -73.2124
rradius 134.395 -0 0
rwrist -44.7513 0 0
rhand -26.471 -20.2763 -0.0045563
rfingers 7.12502 -0 0
rthumb 0.0908328 -50.2554 -0.00439763
